<?xml version="1.0" encoding="UTF-8"?>
<svg id="logo_irose_couleur_2" xmlns="http://www.w3.org/2000/svg" viewBox="0 0 1500 1500">
  <defs>
    <style>
      .cls-1 {
        fill: #484544;
      }

      .cls-2 {
        fill: #f6af95;
      }

      .cls-3 {
        fill: #74a68e;
      }
    </style>
  </defs>
  <g id="logo_irose_cs" data-name="logo irose cs">
    <path class="cls-1" d="M1003.38,919.94c-.8.47-1.63.94-2.52,1.44-1.16.66-2.41,1.36-3.77,2.11-8.31,4.57-20.14,10.66-34.6,17.09-2.35,1.02-4.76,2.08-7.23,3.13-1.27.53-2.58,1.08-3.88,1.63-1.38.55-2.77,1.14-4.15,1.69-1.38.55-2.77,1.08-4.18,1.63-4.24,1.66-8.59,3.3-13.1,4.9-27.81,9.92-60.74,18.53-95.42,21.02.06-.08.28-.3.64-.72.14-.14.28-.3.47-.47,2.47-2.63,8.84-9.36,17.62-18.2.61-.58,1.22-1.22,1.83-1.83,2.49-2.49,5.12-5.15,7.92-7.87.72-.69,1.41-1.38,2.13-2.11,10.86-10.61,23.6-22.6,36.53-33.74.83-.75,1.69-1.47,2.55-2.19,8.5-7.26,17.03-14.1,25.15-19.89.8-.58,1.61-1.14,2.41-1.69,1.55-1.08,3.1-2.13,4.6-3.13.83-.53,1.66-1.08,2.47-1.58,1.5-.94,2.96-1.86,4.43-2.71,2.27-1.33,4.49-2.52,6.62-3.57,1.36-.66,2.69-1.27,3.96-1.83,1.33-.55,2.6-1.02,3.85-1.44,0,0,3.35-1.5,2.41-2.41-1.69-1.22-6.18-.69-7.45-.47-.22.03-.36.06-.36.06-21.99,3.02-76.61,39.33-116.67,71.07-2.05,1.63-4.07,3.21-6.01,4.79-41.77,33.85-74.7,57.34-113.43,63.73-35.07,5.79-129.57,24.96-249.18-72.65-5.4-4.9-10.66-9.92-15.82-15.1-1.72-1.72-3.43-3.46-5.12-5.21-1.69-1.74-3.35-3.49-5.01-5.26-4.99-5.32-9.86-10.77-14.57-16.31.03.03.08.06.11.08,3.49,2.96,76.31,68.78,172.48,67.94,13.57-.11,30.69-5.46,49.75-13.99-.78-1.02-1.63-2.22-2.55-3.49-.78-1.11-1.63-2.3-2.52-3.57-.69-1-1.44-2.05-2.19-3.16-.58-.86-1.22-1.77-1.86-2.74-.55-.83-1.11-1.66-1.69-2.55-.66-1-1.36-2.05-2.05-3.1-.33-.53-.66-1.05-1-1.61-.72-1.08-1.41-2.22-2.16-3.38-7.7-12.27-16.65-27.95-25.26-46.28-4.13-8.75-9.56-19.89-16.07-32.38-.89-1.72-1.8-3.46-2.77-5.24-13.93-26.4-32.35-57.97-53.18-85.92-2.05-2.71-4.1-5.4-6.18-8.03-2.02-2.58-4.04-5.1-6.09-7.56-1.74-2.11-3.49-4.18-5.26-6.23-.94-1.02-1.86-2.08-2.77-3.1-1.77-1.99-3.57-3.93-5.37-5.84-2.8-2.94-5.62-5.79-8.48-8.5-1.69-1.61-3.41-3.19-5.12-4.74-1.99-1.75-3.99-3.43-5.98-5.07-1.63-1.3-3.24-2.58-4.87-3.77-.58-.47-1.14-.89-1.72-1.27-2.47-1.8-4.93-3.49-7.42-5.04-3.91-2.41-7.84-4.54-11.77-6.32v.03c.08.08.22.22.44.47.14.11.25.25.42.42.14.14.3.33.5.53s.39.42.64.64c6.95,7.28,30.72,32.88,56.81,69.38,1.69,2.35,3.38,4.76,5.07,7.2,11.74,16.92,23.77,35.9,34.73,56.28.8,1.5,1.61,2.99,2.41,4.51.8,1.5,1.58,3.02,2.35,4.54,1.58,3.05,3.13,6.15,4.63,9.25.75,1.55,1.5,3.1,2.22,4.65.08.17.14.3.22.44,1.41,2.99,2.8,5.98,4.13,9.03,3.52,7.95,6.81,16.04,9.81,24.24,0,0-.22-.03-.69-.11-.14-.03-.33-.06-.53-.08-.58-.08-1.41-.22-2.41-.42-1-.17-2.22-.39-3.6-.66-7.42-1.44-20.08-4.24-35.37-9.03-1.58-.47-3.19-1-4.82-1.55-11.91-3.91-25.18-8.97-38.67-15.48-2.22-1.05-4.46-2.16-6.68-3.32-2.22-1.14-4.46-2.33-6.68-3.55-20.03-11.05-39.78-25.4-55.67-43.9-1.75-2.05-3.46-4.13-5.12-6.29-26.29-34.04-40.3-65.7-46.56-99.02,0-.03-.03-.03-.03-.03-16.84,3.16-32.16,5.21-48.47,16.34h-.03c-8.39-33.35-13.07-68.22-13.54-104.06-3.3-255.16,209.21-463.15,464.25-454.53,140.66,4.77,260.53,64.3,337.69,165.49h55.83c-86.39-132.06-234.83-211.5-408.98-211.5-273.16,0-494.58,221.45-494.58,494.58,0,178.74,94.78,335.32,236.85,422.21,75.04,45.92,163.31,72.4,257.73,72.4,61.46,0,120.38-11.22,174.67-31.74h-.08c-101.13,11.22-175.72,3.96-228.1-8.23-4.6-1.05-8.92-2.16-13.02-3.24-2.3-.61-4.51-1.22-6.65-1.83-.89-.25-1.77-.53-2.63-.78-.83-.25-1.72-.53-2.6-.8-10.8-3.41-25.12-8.97-29.64-10.72-.91-.36-1.41-.58-1.41-.58-.11-.06-.33-.19-.25-.3,0,0,.03-.17,1.47-.25.47-.03,1-.03,1.55-.03,6.29-.11,12.52-.33,18.67-.72,2.16-.11,4.32-.28,6.48-.44,2.19-.17,4.35-.33,6.51-.55,4.74-.44,9.39-.97,13.96-1.63,1.47-.19,2.91-.42,4.35-.64,3.88-.58,7.67-1.27,11.38-2.02,1.36-.28,2.69-.55,4.02-.86,1.19-.25,2.35-.53,3.52-.8,1.44-.36,2.91-.72,4.32-1.11.94-.22,1.86-.47,2.77-.75.8-.22,1.58-.44,2.35-.66.89-.28,1.77-.53,2.63-.8,1.16-.36,2.33-.75,3.46-1.14.89-.28,1.75-.58,2.58-.89.83-.3,1.63-.58,2.44-.91,1.97-.72,3.85-1.47,5.73-2.27.91-.42,1.8-.8,2.71-1.22.28-.11.53-.25.8-.36.83-.42,1.69-.8,2.49-1.22,3.46-1.72,6.76-3.55,9.86-5.57.72-.44,1.41-.91,2.11-1.36.3-.22.61-.42.89-.64.64-.44,1.25-.89,1.86-1.33.3-.19.58-.42.86-.64.61-.47,1.22-.94,1.8-1.41.22-.17.44-.36.66-.53.64-.53,1.27-1.08,1.88-1.63.08-.03.14-.11.22-.17,1.05-.94,2.35-1.55,3.77-1.69.06-.03.14-.03.19-.03.42-.03.86-.06,1.36-.08.42-.06.89-.08,1.38-.14.69-.06,1.47-.14,2.3-.22.89-.08,1.88-.17,2.94-.28.66-.08,1.36-.14,2.11-.22,1.16-.14,2.44-.28,3.77-.42.06-.03.08-.03.11-.03,1.3-.14,2.63-.3,4.04-.5.8-.11,1.61-.19,2.44-.3.39-.06.75-.11,1.14-.17,2.91-.39,6.04-.83,9.39-1.36,2.69-.42,5.48-.89,8.42-1.38,4.96-.86,10.22-1.83,15.76-2.96,1.08-.22,2.16-.44,3.24-.66,5.76-1.22,11.77-2.6,17.98-4.15,3.68-.91,7.4-1.88,11.19-2.94,2.35-.66,4.71-1.33,7.12-2.02,3.41-1.02,6.84-2.08,10.33-3.19,5.9-1.91,11.86-3.96,17.87-6.2,2.24-.83,4.51-1.72,6.76-2.6,2.27-.91,4.54-1.83,6.79-2.77,2.83-1.16,5.65-2.41,8.45-3.68,1.52-.69,3.07-1.38,4.6-2.11.47-.22.97-.44,1.47-.72,1.47-.66,2.94-1.38,4.4-2.11,1.27-.64,2.52-1.27,3.79-1.94,1.52-.75,3.05-1.55,4.54-2.35,1.91-1,3.79-2.02,5.65-3.1.36-.19.72-.39,1.08-.61,1.97-1.11,3.93-2.24,5.87-3.43.06,0,.08-.03.11-.06,1.05-.64,2.11-1.27,3.16-1.94.22-.14.42-.25.64-.42,1.41-.86,2.8-1.74,4.18-2.66.5-.3,1.02-.64,1.52-1,1.47-.97,2.94-1.97,4.4-2.99,1.63-1.14,3.24-2.3,4.85-3.46,2.27-1.66,4.51-3.38,6.73-5.15,1.72-1.36,3.41-2.74,5.07-4.15,0,0,.03-.03.06-.03,1.74-1.5,3.49-3.02,5.21-4.6,1.44-1.3,2.88-2.63,4.27-3.99.36-.33.69-.66,1.02-1,.55-.91-.47-2.13-1.5-1.61Z"/>
    <path id="tete_ragondin" class="cls-1" d="M1205.47,495.9c-33.13-17.73-152.54-62.13-206.6-63.9-48.22-1.58-75.98,7.76-82.6,10.33-.86.33-1.22,1.3-.8,2.11,3.02,5.82,13.52,26.98,7.01,27.59-7.53.66-19.67-36.42-49.16-40.22-40.22-5.18-60.8,31.44-55.31,58.86,5.51,27.45,40,39.44,53.02,40.8,7.84.83,6.92,3.85,4.93,6.15-1.72,1.99-4.15,3.16-6.76,3.52-5.15.72-15.37.83-28.11-5.76-18.53-9.61-16.23-13.05-21.05-11-4.79,2.08-77.31,67.72-134.92,100.63-57.64,32.93-68.14,32.35-123.01,42.49,49.19,59.05,48.28,131.65,51.02,150.98,3.19,22.13,20.28,62.6,21.49,65.51-.8-3.43-15.07-62.76,8.03-106.58,23.77-45.12,82.32-82.93,82.32-82.93,0,0,16.48,36.59,13.41,82.93-3.05,46.37-35.98,74.4-58.53,91.18-22.57,16.79-36.59,25.93-36.59,25.93,0,0,.5,1.02,1.47,2.85.28.5.58,1.08.91,1.69,1.44,2.6,3.46,6.12,6.07,10.3.64,1,1.27,2.05,1.99,3.1,0,.06.03.08.08.11.69,1.08,1.41,2.16,2.16,3.3.42.61.86,1.25,1.3,1.91.78,1.14,1.61,2.3,2.44,3.49.5.66,1,1.36,1.52,2.05.86,1.19,1.77,2.41,2.69,3.63,2.47,3.19,5.15,6.48,8,9.75,9.61-5.04,19.5-10.58,29.55-16.45.06-.03.14-.08.19-.11.3-.17.61-.36.94-.55,42.35-24.79,87.06-54.98,121.82-74.32.11-.06.22-.14.33-.19,9.58-5.21,18.78-9.86,27.48-13.68,13.43-5.6,25.45-9.83,36.51-12.96.8-.22,1.61-.44,2.38-.64,43.07-10.8,78.08-4.35,122.18,6.09,1.88.44,3.82.91,5.79,1.38.89-3.46,24.4-92.93,59.39-124.31,35.68-32.02,105.92-51.35,128.99-97.89,41.27-83.32-.89-106.58-1.97-107.17ZM1073.27,529.5c-9.83,0-17.84-7.98-17.84-17.84s8-17.84,17.84-17.84,17.84,7.98,17.84,17.84-7.98,17.84-17.84,17.84Z"/>
    <path id="feuille_verte" class="cls-3" d="M738.36,777.4c-3.05,46.37-35.98,74.4-58.53,91.18-22.57,16.79-36.59,25.93-36.59,25.93,0,0,.5,1.02,1.47,2.85.28.5.58,1.08.91,1.69,1.44,2.6,3.46,6.12,6.07,10.3.64,1,1.27,2.05,1.99,3.1,0,.06.03.08.08.11.66,1.08,1.38,2.16,2.16,3.3.42.61.86,1.25,1.3,1.91.78,1.14,1.61,2.3,2.44,3.49.5.66,1,1.36,1.52,2.05.86,1.19,1.77,2.41,2.69,3.63,2.47,3.19,5.15,6.48,8,9.75-7.92,4.13-15.62,7.92-23.05,11.22-.78-1.02-1.63-2.22-2.55-3.49-.78-1.11-1.63-2.3-2.52-3.57-.69-1-1.44-2.05-2.19-3.16-.58-.86-1.22-1.77-1.86-2.74-.55-.83-1.11-1.66-1.69-2.55-.66-1-1.33-2.02-2.05-3.1-.33-.53-.66-1.05-1-1.61-.72-1.08-1.41-2.22-2.16-3.38-7.7-12.27-16.65-27.95-25.26-46.28-4.13-8.75-9.56-19.89-16.07-32.38-.89-1.72-1.8-3.46-2.77-5.24-13.93-26.4-32.35-57.97-53.18-85.92-2.05-2.71-4.1-5.4-6.18-8.03-2.02-2.58-4.04-5.1-6.09-7.56-1.74-2.11-3.49-4.18-5.26-6.23-.94-1.02-1.86-2.08-2.77-3.1-1.77-1.99-3.57-3.93-5.37-5.84-2.8-2.94-5.62-5.79-8.48-8.5-1.69-1.61-3.41-3.19-5.12-4.74-1.99-1.75-3.99-3.43-5.98-5.07-1.63-1.3-3.24-2.58-4.87-3.77-.58-.47-1.14-.89-1.72-1.27-2.47-1.8-4.93-3.49-7.42-5.04-3.91-2.41-7.84-4.54-11.77-6.32-.03,0-.03-.03-.06-.03,0,0,.03.03.06.06.08.08.22.22.44.47.14.11.25.25.42.42.14.14.3.33.5.53s.39.42.64.64c6.95,7.28,30.72,32.88,56.81,69.38,1.69,2.35,3.38,4.76,5.07,7.2,11.74,16.92,23.77,35.9,34.73,56.28.8,1.5,1.61,2.99,2.41,4.51.8,1.5,1.58,3.02,2.35,4.54,1.58,3.05,3.1,6.12,4.63,9.25.75,1.55,1.5,3.1,2.22,4.65.08.17.14.3.22.44,1.41,2.99,2.77,6.01,4.13,9.03,3.52,7.95,6.81,16.04,9.81,24.24,0,0-.22-.03-.69-.11-.14-.03-.33-.06-.53-.08-.58-.08-1.41-.22-2.41-.42-1-.17-2.22-.39-3.6-.66-7.42-1.44-20.08-4.24-35.37-9.03-1.58-.47-3.19-1-4.82-1.55-11.91-3.91-25.18-8.97-38.67-15.48-2.22-1.05-4.46-2.16-6.68-3.32-2.22-1.14-4.46-2.33-6.68-3.55-20.03-11.05-39.78-25.4-55.67-43.9-1.75-2.05-3.46-4.13-5.12-6.29-26.29-34.04-40.3-65.7-46.56-99.02v-.03c-6.51-34.26-4.82-70.27.06-112.26,0,0,63.12-10.3,146.36,50.99,13.24,9.75,24.32,20.41,33.57,31.58h.03c49.19,59.05,48.28,131.65,51.02,150.98,3.19,22.13,20.28,62.6,21.49,65.51-.8-3.43-15.07-62.76,8.03-106.58,23.77-45.12,82.32-82.93,82.32-82.93,0,0,16.48,36.59,13.41,82.93Z"/>
    <path id="feuille_rose" class="cls-2" d="M1192.37,823.21c-41.19,103.81-123.4,175-199.93,221.56-.03,0-.06.03-.08.03-15.82,8.06-32.13,15.26-48.89,21.58h-.08c-101.13,11.22-175.72,3.96-228.1-8.23-4.6-1.05-8.92-2.16-13.02-3.24-2.3-.61-4.51-1.22-6.65-1.83-.89-.25-1.77-.53-2.63-.78-.83-.25-1.72-.53-2.6-.8-10.8-3.41-25.12-8.97-29.64-10.72-.91-.36-1.41-.58-1.41-.58-.11-.06-.33-.19-.25-.3,0,0,.03-.17,1.47-.25.47-.03,1-.03,1.55-.03,6.29-.11,12.52-.33,18.67-.72,2.16-.11,4.32-.28,6.48-.44,2.19-.17,4.35-.33,6.51-.55,4.74-.44,9.39-.97,13.96-1.63,1.47-.19,2.91-.42,4.35-.64,3.88-.58,7.67-1.27,11.38-2.02,1.36-.28,2.69-.55,4.02-.86,1.19-.25,2.35-.53,3.52-.8,1.44-.36,2.91-.72,4.32-1.11.94-.22,1.86-.47,2.77-.75.8-.22,1.58-.44,2.35-.66.89-.28,1.77-.53,2.63-.8,1.16-.36,2.33-.75,3.46-1.14.89-.28,1.75-.58,2.58-.89.83-.3,1.63-.58,2.44-.91,1.97-.72,3.85-1.47,5.73-2.27.91-.42,1.8-.8,2.71-1.22.28-.11.53-.25.8-.36.83-.42,1.69-.8,2.49-1.22,3.46-1.72,6.76-3.55,9.86-5.57.72-.44,1.41-.91,2.11-1.36.3-.22.61-.42.89-.64.64-.44,1.25-.89,1.86-1.33.3-.19.58-.42.86-.64.61-.47,1.22-.94,1.8-1.41.22-.17.44-.36.66-.53.64-.53,1.27-1.08,1.88-1.63.08-.03.14-.11.22-.17,1.05-.94,2.35-1.55,3.77-1.69.06-.03.14-.03.19-.03.42-.03.86-.06,1.36-.08.42-.06.89-.08,1.38-.14.69-.06,1.47-.14,2.3-.22.91-.06,1.88-.17,2.94-.28.66-.08,1.36-.14,2.11-.22,1.16-.14,2.44-.28,3.77-.42.06-.03.08-.03.11-.03,1.3-.14,2.63-.3,4.04-.5.8-.11,1.61-.19,2.44-.3.39-.06.75-.11,1.14-.17,2.91-.39,6.04-.83,9.39-1.36,2.69-.42,5.48-.86,8.42-1.38,4.96-.86,10.22-1.83,15.76-2.96,1.08-.22,2.16-.44,3.24-.66,5.76-1.22,11.77-2.6,17.98-4.15,3.68-.91,7.4-1.88,11.19-2.94,2.35-.66,4.71-1.33,7.12-2.02,3.41-1.02,6.84-2.08,10.33-3.19,5.9-1.91,11.86-3.96,17.87-6.2,2.24-.83,4.51-1.72,6.76-2.6,2.24-.89,4.51-1.8,6.79-2.77,2.83-1.16,5.65-2.41,8.45-3.68,1.52-.66,3.05-1.38,4.6-2.11.47-.22.97-.44,1.47-.72,1.47-.66,2.94-1.38,4.4-2.11,1.27-.64,2.52-1.27,3.79-1.94,1.52-.75,3.05-1.55,4.54-2.35,1.91-1,3.79-2.02,5.65-3.1.36-.19.72-.39,1.08-.61,1.97-1.11,3.93-2.24,5.87-3.43.06,0,.08-.03.11-.06,1.05-.64,2.11-1.27,3.16-1.94.22-.14.42-.25.64-.42,1.41-.86,2.8-1.74,4.18-2.66.5-.3,1.02-.64,1.52-1,1.47-.97,2.94-1.97,4.4-2.99,1.63-1.14,3.24-2.3,4.85-3.46,2.27-1.66,4.51-3.38,6.73-5.15,1.72-1.36,3.38-2.74,5.07-4.15,0,0,.03-.03.06-.03,1.75-1.5,3.49-3.02,5.21-4.6,1.44-1.3,2.88-2.63,4.27-3.99.36-.33.69-.66,1.03-1,.55-.91-.47-2.13-1.5-1.61-.8.47-1.63.94-2.52,1.44-1.16.66-2.41,1.36-3.77,2.11-8.31,4.57-20.14,10.66-34.6,17.09-2.35,1.02-4.76,2.08-7.23,3.13-1.27.53-2.58,1.08-3.88,1.63-1.38.55-2.77,1.14-4.15,1.69-1.38.55-2.77,1.08-4.18,1.63-4.24,1.66-8.59,3.3-13.1,4.9-27.81,9.92-60.74,18.53-95.42,21.02.06-.08.28-.3.64-.72.14-.14.28-.3.47-.47,2.47-2.63,8.84-9.36,17.62-18.2.61-.58,1.22-1.22,1.83-1.83,2.49-2.49,5.12-5.15,7.92-7.87.72-.69,1.41-1.38,2.13-2.11,10.86-10.61,23.6-22.6,36.53-33.74.83-.75,1.69-1.47,2.55-2.19,8.5-7.26,17.03-14.1,25.15-19.89.8-.58,1.61-1.14,2.41-1.69,1.55-1.08,3.1-2.13,4.6-3.13.83-.53,1.66-1.08,2.47-1.58,1.5-.94,2.96-1.86,4.43-2.71,2.27-1.33,4.49-2.52,6.62-3.57,1.36-.66,2.69-1.27,3.96-1.83,1.33-.55,2.6-1.02,3.85-1.44,0,0,3.35-1.5,2.41-2.41-1.69-1.22-6.18-.69-7.45-.47-.22.03-.36.06-.36.06-21.99,3.02-76.61,39.33-116.67,71.07-2.05,1.63-4.07,3.21-6.01,4.79-41.77,33.85-74.7,57.34-113.43,63.73-35.07,5.79-129.57,24.96-249.18-72.65-5.4-4.9-10.66-9.92-15.82-15.1-1.72-1.72-3.43-3.46-5.12-5.21-1.69-1.75-3.35-3.49-5.01-5.26-4.96-5.29-9.78-10.72-14.46-16.23,3.49,2.96,76.31,68.78,172.48,67.94,13.57-.11,30.69-5.46,49.75-13.99,7.42-3.3,15.12-7.09,23.05-11.22,9.61-5.04,19.5-10.58,29.55-16.45.06-.03.14-.08.19-.11.3-.17.61-.36.94-.55,42.35-24.79,87.06-54.98,121.82-74.32.11-.06.22-.14.33-.19,9.58-5.21,18.78-9.86,27.48-13.68,13.43-5.6,25.45-9.83,36.51-12.96.8-.22,1.61-.44,2.38-.64,43.07-10.8,78.08-4.35,122.18,6.09,1.88.44,3.82.91,5.79,1.38,11.36,2.71,23.32,5.62,36.23,8.56,39.75,9.03,73.71,6.48,97.89,1.55,22.6-4.57,36.67-11.22,39-12.35.11-.06.25.08.19.19Z"/>
    <path id="particule_verte_6" class="cls-3" d="M1008.67,350.81c0,6.84-5.51,12.35-12.35,12.35s-12.33-5.51-12.33-12.35,5.51-12.35,12.33-12.35,12.35,5.54,12.35,12.35Z"/>
    <path id="particule_verte_5" class="cls-3" d="M809.97,322.45c0,9.09-7.37,16.45-16.48,16.45s-16.45-7.37-16.45-16.45,7.37-16.48,16.45-16.48,16.48,7.37,16.48,16.48Z"/>
    <path id="particule_verte_4" class="cls-3" d="M794.87,223.18c0,9.86-7.98,17.84-17.84,17.84s-17.84-7.98-17.84-17.84,7.98-17.84,17.84-17.84,17.84,7.98,17.84,17.84Z"/>
    <path id="particule_verte_3" class="cls-3" d="M699.14,264.26c1.25,8.38-5.88,15.41-14.22,14.1-5.19-.81-9.42-5.07-10.2-10.26-1.26-8.34,5.79-15.39,14.17-14.11,5.21.79,9.47,5.05,10.25,10.27Z"/>
    <path id="particule_verte_2" class="cls-3" d="M597.18,461.54c1.05,7.03-4.93,12.93-11.93,11.84-4.35-.68-7.9-4.25-8.56-8.61-1.06-6.99,4.86-12.91,11.89-11.84,4.37.67,7.95,4.24,8.6,8.62Z"/>
    <path id="particule_verte_1" class="cls-3" d="M496.64,367.74c0,9.33-7.59,16.92-16.92,16.92s-16.92-7.59-16.92-16.92,7.56-16.92,16.92-16.92,16.92,7.56,16.92,16.92Z"/>
    <path id="particule_rose_3" class="cls-2" d="M934.36,280.81c0,13.88-11.26,25.16-25.14,25.16s-25.16-11.28-25.16-25.16,11.26-25.14,25.16-25.14,25.14,11.26,25.14,25.14Z"/>
    <path id="particule_rose_3-2" data-name="particule_rose_3" class="cls-2" d="M1192.38,384.65c0,17.42-14.13,31.58-31.55,31.58s-31.58-14.15-31.58-31.58,14.13-31.55,31.58-31.55,31.55,14.13,31.55,31.55Z"/>
    <path id="particule_rose_2" class="cls-2" d="M445.4,477.51c0,13.63-11.05,24.71-24.68,24.71s-24.71-11.08-24.71-24.71,11.05-24.71,24.71-24.71,24.68,11.05,24.68,24.71Z"/>
    <path id="particule_rose_1" class="cls-2" d="M633.22,350.8c0,12.23-9.91,22.16-22.14,22.16s-22.16-9.93-22.16-22.16,9.91-22.14,22.16-22.14,22.14,9.91,22.14,22.14Z"/>
    <path id="E" class="cls-1" d="M1223.89,1255.09c-28.7-117.51-219.81-93.05-203.46,50.03,9.61,84.1,111.87,117.51,175.36,65.84,5.36-4.37,26.33-22.65,21.03-28.61l-26.98-18.81c-1.68-1.17-4-.87-5.26.74-32.84,42.25-105.56,40.51-114.61-17.49-.37-2.39,1.47-4.57,3.88-4.57l139.42.1c5.57,0,10.3-4.11,11.04-9.66,1.44-10.77,1.93-27.94-.42-37.57ZM1171.54,1266.62h-95.13c-2.47,0-4.37-2.29-3.84-4.71,11.3-52.34,96.59-55.89,102.88.34.26,2.32-1.57,4.37-3.9,4.37Z"/>
    <path id="S" class="cls-1" d="M997.61,1234.57c.54,2.28-1.16,4.5-3.46,4.5h-36.64c-.24,0-.49-.08-.69-.22q-21.1-14.78-32.03-17.42c-47.38-11.44-66.29,34.49-19.06,45.97,34.32,8.35,80.3.12,94.47,45.89,31.42,101.46-165.72,117.74-171.74,18.89-.13-2.1,1.49-3.89,3.55-3.89h35.32c6.75-.1-1.45,12.26,26.43,26.08,17.35,8.6,60.4,11.97,64.41-12.97,7.15-44.39-57.26-33.84-86.2-44.38-39.7-14.45-50.65-67.56-18.48-96.17,39.74-35.34,130.57-23.46,144.12,33.72Z"/>
    <circle id="int_O" class="cls-3" cx="704.96" cy="1289.67" r="34.23"/>
    <path id="O" class="cls-1" d="M685.59,1182.01c-87.88,10.49-120.97,129.07-53.44,188.16,29.83,26.12,63.41,33.99,101.63,24.16,127.47-32.81,98.75-229.88-48.19-212.32ZM704.95,1352.33c-33.66,0-60.96-27.89-60.96-62.3s27.3-62.3,60.96-62.3,60.98,27.89,60.98,62.3-27.3,62.3-60.98,62.3Z"/>
    <circle id="point_du_i" class="cls-2" cx="342.54" cy="1148.96" r="34.23"/>
    <path class="cls-1" d="M526.34,1328.15c-2.04-1.95-1.36-5.38,1.28-6.36,13.31-4.97,23.59-12.51,30.87-22.64,8.3-11.57,12.46-24.71,12.46-39.44,0-8.56-1.32-16.6-3.94-24.12-1.38-3.93-3.11-7.72-5.21-11.37-6.1-10.62-15.3-18.98-27.6-25.08-8.49-4.21-18.22-6.97-29.16-8.27-4.91-.58-10.07-.88-15.48-.88h-14.55c-.17-.09-.36-.14-.56-.14h-44.85c-.65,0-1.18.53-1.18,1.18l-.33,113.64c0,29.31,0,51.23-30.42,51.67-30.67.44-30.67-22.17-30.67-51.67l-.13-99.59c0-.65-.53-1.17-1.18-1.17h-44.92c-.65,0-1.18.53-1.18,1.18v129.08s0,.45.05,1.28c-.03,1.27-.05,2.63-.05,4.09,0,57.39-35.2,57.52-45.43,59.63-.79.16-.72,1.22-.03,1.27,22.22,1.81,68.46-9.59,75.98-11.5.66-.17,1.36-.08,1.95.26,11.01,6.29,25.74,10.5,45.47,10.51,40.35,0,59.93-19.79,69.39-37.6,2.25-4.24,4.04-8.67,5.41-13.24.82-2.76,4.3-3.62,6.3-1.55l50.17,51.71c.73.75,1.76,1.42,2.8,1.41h65.03c1.73-.01,2.57-2.82,1.32-4.01l-71.63-68.29ZM475.63,1289.68v-60.66c2.99,1.18,40.43-3.19,40.43,32.9s-40.43,27.76-40.43,27.76Z"/>
  </g>
</svg>